<?xml version="1.0" encoding="UTF-8"?>
<svg version="1.1" xmlns="http://www.w3.org/2000/svg" xmlns:xlink="http://www.w3.org/1999/xlink">
	<symbol id="asset_logo" viewBox="0 0 175 26">
		<path d="M32,23.8h-2V21h-6v2.8h-2v-4.6h0.9c0.3-0.7,0.6-1.6,0.8-2.5c0.2-0.9,0.3-1.8,0.4-2.8s0.2-1.9,0.2-2.9c0-1,0-2,0-2.9V6.9h6.6 v12.3H32V23.8z M41.5,20c-0.4,0.4-1,0.6-1.5,0.8c-0.6,0.2-1.2,0.3-1.9,0.3c-1.5,0-2.6-0.6-3.4-1.7c-0.8-1.1-1.3-2.8-1.3-5 c0-1.1,0.1-2.2,0.2-3.1c0.2-1,0.4-1.8,0.8-2.5c0.3-0.7,0.8-1.2,1.3-1.6c0.5-0.4,1.2-0.6,1.9-0.6c0.6,0,1.1,0.1,1.6,0.3 s0.9,0.6,1.2,1.1c0.3,0.5,0.6,1.2,0.8,2c0.2,0.8,0.3,1.8,0.3,3v1.2h-5.9c0,1.6,0.2,2.8,0.7,3.6c0.4,0.8,1.1,1.2,2,1.2 c0.6,0,1.2-0.1,1.6-0.3c0.5-0.2,0.9-0.4,1.1-0.6L41.5,20z M20.8,6.9V21h-2.2v-6.3h-3.2V21h-2.2V6.9h2.2v6h3.2v-6H20.8z M45.9,14v7 h-2.2V6.9h2.2v6.5l3.4-6.5h2.2L48,13.5l4,7.5h-2.4L45.9,14z M57.1,21.2c-1.5,0-2.7-0.6-3.6-1.8c-0.9-1.2-1.3-3-1.3-5.4 c0-1.1,0.1-2.1,0.3-3s0.5-1.7,1-2.3C54,8,54.5,7.6,55.1,7.2s1.3-0.5,2.2-0.5c0.6,0,1.1,0.1,1.5,0.2s0.7,0.3,1.1,0.5l-0.3,2.1 c-0.3-0.3-0.6-0.5-1-0.7s-0.8-0.3-1.3-0.3c-0.8,0-1.4,0.4-1.9,1.3s-0.8,2.2-0.8,4c0,1.8,0.2,3.1,0.6,4.1s1.1,1.4,2,1.4 c0.5,0,1-0.1,1.4-0.3c0.4-0.2,0.7-0.4,1-0.6l0.5,1.6c-0.4,0.3-0.8,0.6-1.3,0.8C58.4,21.1,57.8,21.2,57.1,21.2z M28.8,8.7h-2.4v0.3 c0,0.7,0,1.6,0,2.4s-0.1,1.8-0.2,2.7c-0.1,0.9-0.2,1.8-0.4,2.7c-0.2,0.9-0.4,1.7-0.7,2.5h3.8V8.7z M37.6,8.5c-0.7,0-1.1,0.4-1.4,1.1 c-0.3,0.8-0.5,1.8-0.5,3h3.6c0-0.6,0-1.2-0.1-1.7c-0.1-0.5-0.1-1-0.3-1.3c-0.1-0.4-0.3-0.7-0.5-0.9C38.2,8.6,37.9,8.5,37.6,8.5z M74.2,2.1h-6V21h-1.4V1h8.8v20h-1.4V2.1z M79.3,14.2c0,1.9,0.3,3.4,0.8,4.4c0.5,1,1.3,1.5,2.3,1.5c0.5,0,0.9-0.1,1.2-0.2 c0.4-0.1,0.7-0.3,0.9-0.5c0.3-0.2,0.5-0.5,0.7-0.8l0.4,1.1c-0.2,0.3-0.5,0.6-0.8,0.8c-0.3,0.2-0.6,0.4-1,0.5 c-0.4,0.2-0.9,0.2-1.5,0.2c-1.5,0-2.6-0.6-3.3-1.9c-0.7-1.3-1.1-3.1-1.1-5.4c0-1.2,0.1-2.2,0.3-3.1c0.2-0.9,0.5-1.7,0.9-2.3 c0.4-0.6,0.8-1.1,1.3-1.4s1.1-0.5,1.7-0.5c0.6,0,1.2,0.2,1.7,0.5c0.5,0.3,0.9,0.8,1.2,1.4c0.3,0.6,0.5,1.4,0.7,2.4 c0.1,0.9,0.1,2,0,3.3H79.3z M82.1,7.7c-0.7,0-1.4,0.5-1.9,1.4c-0.5,0.9-0.8,2.3-0.9,4h5.1c0.1-1.9-0.1-3.3-0.5-4.1 C83.4,8.1,82.8,7.7,82.1,7.7z M92.1,20.2c0.9,0,1.6-0.5,2.2-1.6c0.5-1.1,0.8-2.7,0.8-5c0-1.9-0.2-3.3-0.7-4.3s-1.1-1.5-1.9-1.5 c-0.3,0-0.6,0.1-0.9,0.2c-0.3,0.2-0.6,0.4-0.8,0.6c-0.3,0.3-0.5,0.6-0.7,0.9c-0.2,0.3-0.4,0.7-0.5,1.1v7.9c0.3,0.6,0.6,1,1,1.3 C90.9,20.1,91.5,20.2,92.1,20.2z M92,21.3c-0.5,0-1-0.1-1.5-0.4c-0.4-0.2-0.8-0.5-1.1-0.9v5.3h-1.3V6.9h1.1l0.1,2.3 c0.3-0.7,0.7-1.3,1.3-1.8s1.2-0.8,2-0.8c0.6,0,1.1,0.2,1.6,0.5s0.9,0.8,1.2,1.4c0.3,0.6,0.6,1.3,0.7,2.2s0.3,1.8,0.3,2.8 c0,2.6-0.4,4.5-1.2,5.8C94.4,20.6,93.3,21.3,92,21.3z M99.5,14.2c0,1.9,0.3,3.4,0.8,4.4c0.5,1,1.3,1.5,2.3,1.5 c0.5,0,0.9-0.1,1.2-0.2c0.4-0.1,0.7-0.3,0.9-0.5c0.3-0.2,0.5-0.5,0.7-0.8l0.4,1.1c-0.2,0.3-0.5,0.6-0.8,0.8c-0.3,0.2-0.6,0.4-1,0.5 c-0.4,0.2-0.9,0.2-1.5,0.2c-1.5,0-2.6-0.6-3.3-1.9c-0.7-1.3-1.1-3.1-1.1-5.4c0-1.2,0.1-2.2,0.3-3.1c0.2-0.9,0.5-1.7,0.9-2.3 c0.4-0.6,0.8-1.1,1.3-1.4c0.5-0.3,1.1-0.5,1.7-0.5c0.6,0,1.2,0.2,1.7,0.5c0.5,0.3,0.9,0.8,1.2,1.4s0.5,1.4,0.7,2.4 c0.1,0.9,0.1,2,0,3.3H99.5z M102.3,7.7c-0.7,0-1.4,0.5-1.9,1.4c-0.5,0.9-0.8,2.3-0.9,4h5.1c0.1-1.9-0.1-3.3-0.5-4.1 C103.6,8.1,103,7.7,102.3,7.7z M109.6,8v13h-1.3V6.9h6V8H109.6z M119.7,21.3c-0.6,0-1.2-0.2-1.7-0.5c-0.5-0.3-1-0.8-1.4-1.4 c-0.4-0.6-0.7-1.3-0.9-2.3c-0.2-0.9-0.3-2-0.3-3.2c0-1.2,0.1-2.2,0.3-3.1s0.5-1.7,0.9-2.3c0.4-0.6,0.8-1.1,1.4-1.4 c0.5-0.3,1.1-0.5,1.7-0.5c0.6,0,1.2,0.1,1.7,0.4c0.5,0.3,1,0.8,1.4,1.4c0.4,0.6,0.7,1.4,0.9,2.3c0.2,0.9,0.3,2,0.3,3.2 c0,1.2-0.1,2.2-0.3,3.1c-0.2,0.9-0.5,1.7-0.9,2.3s-0.8,1.1-1.4,1.5C120.9,21.1,120.3,21.3,119.7,21.3z M119.7,20.2 c0.8,0,1.5-0.5,2.1-1.5c0.6-1,0.9-2.6,0.9-4.7c0-1.1-0.1-2-0.2-2.8c-0.2-0.8-0.4-1.4-0.6-1.9s-0.6-0.9-1-1.1 c-0.4-0.2-0.8-0.4-1.2-0.4c-0.8,0-1.5,0.5-2.1,1.5s-0.9,2.6-0.9,4.7c0,1.1,0.1,2,0.2,2.8c0.2,0.8,0.4,1.4,0.6,1.9 c0.3,0.5,0.6,0.9,1,1.1C118.9,20.1,119.3,20.2,119.7,20.2z M126.4,21V6.9h3c1.3,0,2.2,0.3,2.9,0.9s1,1.4,1,2.5 c0,0.7-0.2,1.3-0.5,1.9c-0.3,0.6-0.8,1-1.5,1.3c0.9,0.3,1.6,0.7,2,1.3c0.4,0.6,0.6,1.3,0.6,2.2c0,1.4-0.4,2.4-1.2,3.1 c-0.8,0.7-1.9,1-3.2,1H126.4z M127.7,7.9v5.2h1.6c0.8,0,1.4-0.2,1.9-0.7c0.5-0.4,0.7-1.2,0.7-2.1c0-0.9-0.2-1.5-0.7-1.9 c-0.5-0.4-1.1-0.5-1.9-0.5H127.7z M127.7,14.1V20h1.7c0.9,0,1.7-0.2,2.2-0.7c0.6-0.4,0.9-1.2,0.9-2.3c0-1-0.3-1.8-0.8-2.2 c-0.5-0.4-1.3-0.7-2.3-0.7H127.7z M139.8,21.3c-0.6,0-1.2-0.2-1.7-0.5c-0.5-0.3-1-0.8-1.4-1.4c-0.4-0.6-0.7-1.3-0.9-2.3 c-0.2-0.9-0.3-2-0.3-3.2c0-1.2,0.1-2.2,0.3-3.1s0.5-1.7,0.9-2.3c0.4-0.6,0.8-1.1,1.4-1.4c0.5-0.3,1.1-0.5,1.7-0.5s1.2,0.1,1.7,0.4 c0.5,0.3,1,0.8,1.4,1.4c0.4,0.6,0.7,1.4,0.9,2.3c0.2,0.9,0.3,2,0.3,3.2c0,1.2-0.1,2.2-0.3,3.1s-0.5,1.7-0.9,2.3 c-0.4,0.6-0.8,1.1-1.4,1.5C141,21.1,140.4,21.3,139.8,21.3z M139.8,20.2c0.8,0,1.5-0.5,2.1-1.5c0.6-1,0.9-2.6,0.9-4.7 c0-1.1-0.1-2-0.2-2.8c-0.2-0.8-0.4-1.4-0.6-1.9c-0.3-0.5-0.6-0.9-1-1.1s-0.8-0.4-1.2-0.4c-0.8,0-1.5,0.5-2.1,1.5 c-0.6,1-0.9,2.6-0.9,4.7c0,1.1,0.1,2,0.2,2.8c0.2,0.8,0.4,1.4,0.6,1.9c0.3,0.5,0.6,0.9,1,1.1C139,20.1,139.4,20.2,139.8,20.2z M150.5,20.2c0.9,0,1.6-0.5,2.2-1.6c0.5-1.1,0.8-2.7,0.8-5c0-1.9-0.2-3.3-0.7-4.3c-0.5-1-1.1-1.5-1.9-1.5c-0.3,0-0.6,0.1-0.9,0.2 c-0.3,0.2-0.6,0.4-0.8,0.6c-0.3,0.3-0.5,0.6-0.7,0.9c-0.2,0.3-0.4,0.7-0.5,1.1v7.9c0.3,0.6,0.6,1,1,1.3 C149.3,20.1,149.8,20.2,150.5,20.2z M150.4,21.3c-0.5,0-1-0.1-1.5-0.4c-0.4-0.2-0.8-0.5-1.1-0.9v5.3h-1.3V6.9h1.1l0.1,2.3 c0.3-0.7,0.7-1.3,1.3-1.8c0.5-0.5,1.2-0.8,2-0.8c0.6,0,1.1,0.2,1.6,0.5c0.5,0.3,0.9,0.8,1.2,1.4s0.6,1.3,0.7,2.2s0.3,1.8,0.3,2.8 c0,2.6-0.4,4.5-1.2,5.8S151.7,21.3,150.4,21.3z M158.6,21h-1.3V6.9h1.3v6.6l4.7-6.6h1.3l-4.6,6.6l5,7.6h-1.5l-4.9-7.3V21z M173.2,11.2c0-0.4,0-0.7,0-1c0-0.3,0-0.6,0.1-0.9h-0.1c-0.1,0.3-0.2,0.6-0.3,0.9c-0.1,0.3-0.3,0.6-0.4,0.9l-4.6,9.9h-1.1V6.9h1.2 v9.8c0,0.4,0,0.7,0,1c0,0.3,0,0.6-0.1,1h0.1c0.1-0.3,0.2-0.6,0.3-0.9c0.1-0.3,0.3-0.6,0.4-0.9l4.6-9.9h1.1V21h-1.3V11.2z"/><path fill="#FF3029" d="M6.5,13.3L3.1,21H0.6l3.8-8.2c-0.9-0.4-1.6-1.1-2.1-2c-0.5-0.9-0.8-2-0.8-3.5c0-1,0.2-2,0.5-2.8s0.7-1.5,1.3-2 S4.2,1.6,5,1.4S6.4,1,7.2,1h3.2v20H8.3v-7.7H6.5z M8.3,2.8H7.1C6.7,2.8,6.3,2.9,5.9,3C5.4,3.2,5.1,3.4,4.8,3.8 C4.4,4.1,4.2,4.6,4,5.2C3.8,5.7,3.7,6.4,3.7,7.3c0,0.8,0.1,1.5,0.3,2c0.2,0.5,0.4,1,0.7,1.3c0.3,0.3,0.7,0.6,1.1,0.7 c0.4,0.1,0.9,0.2,1.3,0.2h1.1V2.8z"/>
	</symbol>
	<symbol id="asset_icon_arrow" viewBox="0 0 7 12">
		<path d="M1.2,11.2c-0.3,0-0.5-0.1-0.7-0.3c-0.4-0.4-0.4-1,0-1.4L4,6L0.5,2.5c-0.4-0.4-0.4-1,0-1.4s1-0.4,1.4,0L6.8,6l-4.9,4.9C1.7,11.1,1.5,11.2,1.2,11.2z"/>
	</symbol>
	<symbol id="asset_icon_close" viewBox="0 0 10 10">
		<path d="M5,3.6L2.2,0.8c-0.4-0.4-1-0.4-1.4,0l0,0l0,0c-0.4,0.4-0.4,1,0,1.4l0,0L3.6,5L0.8,7.9c-0.4,0.4-0.4,1,0,1.4l0,0l0,0c0.4,0.4,1,0.4,1.4,0l0,0L5,6.4l2.8,2.8c0.4,0.4,1,0.4,1.4,0s0.4-1,0-1.4L6.4,5l2.8-2.8c0.4-0.4,0.4-1,0-1.4s-1-0.4-1.4,0L5,3.6z"/>
	</symbol>
	<symbol id="asset_icon_edit" viewBox="0 0 12 12">
		<path d="M11.1,3.1c0.2-0.2,0.2-0.6,0-0.8L9.7,0.9c-0.2-0.2-0.6-0.2-0.8,0L7.8,2L10,4.2L11.1,3.1z M0.8,9.1v2.2h2.2l6.5-6.5L7.2,2.6L0.8,9.1z"/>
	</symbol>
	<symbol id="asset_icon_calendar" viewBox="0 0 12 12">
		<path d="M1,4v7h10V4H1z M10,1h2v11H0V1h2V0h2v1h4V0h2V1z M2,5v2h2V5H2z M5,5v2h2V5H5z M2,8v2h2V8H2z"/>
	</symbol>
</svg>