<?xml version="1.0" encoding="utf-8"?>
<!-- Generator: Adobe Illustrator 20.1.0, SVG Export Plug-In . SVG Version: 6.00 Build 0)  -->
<svg version="1.1" id="Слой_1" xmlns="http://www.w3.org/2000/svg" xmlns:xlink="http://www.w3.org/1999/xlink" x="0px" y="0px"
	 viewBox="0 0 10 10" style="enable-background:new 0 0 10 10;" xml:space="preserve">
<path d="M5,3.6L2.2,0.8c-0.4-0.4-1-0.4-1.4,0l0,0l0,0c-0.4,0.4-0.4,1,0,1.4l0,0L3.6,5L0.8,7.9c-0.4,0.4-0.4,1,0,1.4l0,0l0,0
	c0.4,0.4,1,0.4,1.4,0l0,0L5,6.4l2.8,2.8c0.4,0.4,1,0.4,1.4,0s0.4-1,0-1.4L6.4,5l2.8-2.8c0.4-0.4,0.4-1,0-1.4s-1-0.4-1.4,0L5,3.6z"/>
</svg>
